# xmcd CD database file
#
# Track frame offsets:
#	150
#	15383
#	35980
#	51920
#	67133
#	83743
#	98080
#	122015
#	136643
#	158615
#	177025
#	203205
#	227523
#	244345
#	262783
#	284718
#
# Disc length: 3983 seconds
#
# Revision: 3
# Processed by: cddbd v1.5.2PL0 Copyright (c) Steve Scherf et al.
# Submitted via: CDex 1.72
#
DISCID=d60f8d10
DTITLE=Hopkins, Lightnin" (USA-05-Lightnin' Hopkins-bls) - Prestige Profiles: Lightnin' Hopkins
DYEAR=2005
DGENRE=Blues
TTITLE0=Back To New Orleans
TTITLE1=Automobile Blues
TTITLE2=Pneumonia Blues
TTITLE3=Mojo Hand
TTITLE4=Black Cadillac
TTITLE5=You Is One Black Rat
TTITLE6=Last Night Blues
TTITLE7=Blues In The Bottle
TTITLE8=Walkin' This Road By Myself
TTITLE9=Go To Move Your Baby
TTITLE10=Goin' Away
TTITLE11=Happy Blues For John Glenn
TTITLE12=Mean Old Frisco
TTITLE13=Katie Mae
TTITLE14=I'm A Crawling Black Snake
TTITLE15=Good Morning Little Schoolgirl
EXTD=YEAR: 2005
EXTT0=
EXTT1=
EXTT2=
EXTT3=
EXTT4=
EXTT5=
EXTT6=
EXTT7=
EXTT8=
EXTT9=
EXTT10=
EXTT11=
EXTT12=
EXTT13=
EXTT14=
EXTT15=
PLAYORDER=
